<svg width="265" height="52" viewBox="0 0 265 52" fill="none" xmlns="http://www.w3.org/2000/svg">
<g clip-path="url(#clip0_1593_9)">
<path d="M71.88 18.76V22.24H80.68V28.92H71.88V32.92H81.88V40H63V11.68H81.88V18.76H71.88ZM112.387 40H103.507L94.1066 25.76V40H85.2266V11.68H94.1066L103.507 26.16V11.68H112.387V40ZM115.278 25.56C115.278 23.8267 115.598 22.1333 116.238 20.48C116.905 18.8 117.865 17.28 119.118 15.92C120.372 14.56 121.892 13.48 123.678 12.68C125.492 11.8533 127.532 11.44 129.798 11.44C132.518 11.44 134.892 12.0133 136.918 13.16C138.945 14.28 140.452 15.7733 141.438 17.64L135.478 21.88C135.132 20.9467 134.625 20.2267 133.958 19.72C133.318 19.2133 132.612 18.8667 131.838 18.68C131.092 18.4667 130.358 18.36 129.638 18.36C128.518 18.36 127.545 18.5867 126.718 19.04C125.918 19.4667 125.252 20.04 124.718 20.76C124.212 21.48 123.825 22.28 123.558 23.16C123.318 24.04 123.198 24.92 123.198 25.8C123.198 26.7867 123.345 27.7333 123.638 28.64C123.932 29.5467 124.358 30.36 124.918 31.08C125.478 31.7733 126.158 32.32 126.958 32.72C127.785 33.12 128.705 33.32 129.718 33.32C130.438 33.32 131.172 33.2133 131.918 33C132.665 32.76 133.345 32.3867 133.958 31.88C134.572 31.3733 135.038 30.6933 135.358 29.84L141.718 33.64C141.158 35.0267 140.225 36.2133 138.918 37.2C137.612 38.1867 136.132 38.9467 134.478 39.48C132.825 39.9867 131.185 40.24 129.558 40.24C127.452 40.24 125.518 39.8267 123.758 39C122.025 38.1467 120.518 37.0267 119.238 35.64C117.985 34.2267 117.012 32.6533 116.318 30.92C115.625 29.16 115.278 27.3733 115.278 25.56ZM157.855 40.28C155.188 40.28 152.735 39.6533 150.495 38.4C148.281 37.1467 146.521 35.4133 145.215 33.2C143.908 30.9867 143.255 28.4933 143.255 25.72C143.255 22.9467 143.908 20.4533 145.215 18.24C146.521 16.0267 148.281 14.3067 150.495 13.08C152.735 11.8267 155.188 11.2 157.855 11.2C160.521 11.2 162.961 11.8267 165.175 13.08C167.388 14.3067 169.135 16.0267 170.415 18.24C171.721 20.4533 172.375 22.9467 172.375 25.72C172.375 28.4933 171.721 30.9867 170.415 33.2C169.135 35.4133 167.375 37.1467 165.135 38.4C162.921 39.6533 160.495 40.28 157.855 40.28ZM157.855 32C159.615 32 160.975 31.44 161.935 30.32C162.895 29.1733 163.375 27.64 163.375 25.72C163.375 23.7733 162.895 22.24 161.935 21.12C160.975 19.9733 159.615 19.4 157.855 19.4C156.068 19.4 154.695 19.9733 153.735 21.12C152.775 22.24 152.295 23.7733 152.295 25.72C152.295 27.64 152.775 29.1733 153.735 30.32C154.695 31.44 156.068 32 157.855 32ZM187.378 11.68C190.338 11.68 192.925 12.28 195.138 13.48C197.378 14.68 199.098 16.3467 200.298 18.48C201.498 20.6133 202.098 23.04 202.098 25.76C202.098 28.4533 201.498 30.88 200.298 33.04C199.098 35.2 197.378 36.9067 195.138 38.16C192.925 39.3867 190.338 40 187.378 40H175.578V11.68H187.378ZM186.578 32.08C188.578 32.08 190.165 31.5333 191.338 30.44C192.511 29.3467 193.098 27.7867 193.098 25.76C193.098 23.7333 192.511 22.1733 191.338 21.08C190.165 19.9867 188.578 19.44 186.578 19.44H184.458V32.08H186.578ZM214.185 18.76V22.24H222.985V28.92H214.185V32.92H224.185V40H205.305V11.68H224.185V18.76H214.185ZM239.331 11.68C242.291 11.68 244.878 12.28 247.091 13.48C249.331 14.68 251.051 16.3467 252.251 18.48C253.451 20.6133 254.051 23.04 254.051 25.76C254.051 28.4533 253.451 30.88 252.251 33.04C251.051 35.2 249.331 36.9067 247.091 38.16C244.878 39.3867 242.291 40 239.331 40H227.531V11.68H239.331ZM238.531 32.08C240.531 32.08 242.118 31.5333 243.291 30.44C244.465 29.3467 245.051 27.7867 245.051 25.76C245.051 23.7333 244.465 22.1733 243.291 21.08C242.118 19.9867 240.531 19.44 238.531 19.44H236.411V32.08H238.531Z" fill="black"/>
<rect x="5" y="5" width="42" height="42" stroke="black" stroke-width="2"/>
<path d="M10.032 9H9.03197C8.46206 9 8 9.46199 8 10.032C8 28.2397 22.7603 43 40.968 43H41.968C42.5379 43 43 42.538 43 41.968C43 23.7603 28.2397 9 10.032 9Z" stroke="black" stroke-width="2"/>
<circle cx="28" cy="32" r="5" fill="black"/>
</g>
<defs>
<clipPath id="clip0_1593_9">
<rect width="265" height="52" fill="white"/>
</clipPath>
</defs>
</svg>
