<svg width="207" height="43" viewBox="0 0 207 43" fill="none" xmlns="http://www.w3.org/2000/svg">
<g clip-path="url(#clip0_1593_9)">
<path d="M16.88 14.76V18.24H25.68V24.92H16.88V28.92H26.88V36H8V7.68H26.88V14.76H16.88ZM57.3866 36H48.5066L39.1066 21.76V36H30.2266V7.68H39.1066L48.5066 22.16V7.68H57.3866V36ZM60.2784 21.56C60.2784 19.8267 60.5984 18.1333 61.2384 16.48C61.9051 14.8 62.8651 13.28 64.1184 11.92C65.3718 10.56 66.8918 9.48 68.6784 8.68C70.4918 7.85333 72.5318 7.44 74.7984 7.44C77.5184 7.44 79.8918 8.01333 81.9184 9.16C83.9451 10.28 85.4518 11.7733 86.4384 13.64L80.4784 17.88C80.1318 16.9467 79.6251 16.2267 78.9584 15.72C78.3184 15.2133 77.6118 14.8667 76.8384 14.68C76.0918 14.4667 75.3584 14.36 74.6384 14.36C73.5184 14.36 72.5451 14.5867 71.7184 15.04C70.9184 15.4667 70.2518 16.04 69.7184 16.76C69.2118 17.48 68.8251 18.28 68.5584 19.16C68.3184 20.04 68.1984 20.92 68.1984 21.8C68.1984 22.7867 68.3451 23.7333 68.6384 24.64C68.9318 25.5467 69.3584 26.36 69.9184 27.08C70.4784 27.7733 71.1584 28.32 71.9584 28.72C72.7851 29.12 73.7051 29.32 74.7184 29.32C75.4384 29.32 76.1718 29.2133 76.9184 29C77.6651 28.76 78.3451 28.3867 78.9584 27.88C79.5718 27.3733 80.0384 26.6933 80.3584 25.84L86.7184 29.64C86.1584 31.0267 85.2251 32.2133 83.9184 33.2C82.6118 34.1867 81.1318 34.9467 79.4784 35.48C77.8251 35.9867 76.1851 36.24 74.5584 36.24C72.4518 36.24 70.5184 35.8267 68.7584 35C67.0251 34.1467 65.5184 33.0267 64.2384 31.64C62.9851 30.2267 62.0118 28.6533 61.3184 26.92C60.6251 25.16 60.2784 23.3733 60.2784 21.56ZM102.855 36.28C100.188 36.28 97.7347 35.6533 95.4947 34.4C93.2814 33.1467 91.5214 31.4133 90.2147 29.2C88.908 26.9867 88.2547 24.4933 88.2547 21.72C88.2547 18.9467 88.908 16.4533 90.2147 14.24C91.5214 12.0267 93.2814 10.3067 95.4947 9.08C97.7347 7.82667 100.188 7.2 102.855 7.2C105.521 7.2 107.961 7.82667 110.175 9.08C112.388 10.3067 114.135 12.0267 115.415 14.24C116.721 16.4533 117.375 18.9467 117.375 21.72C117.375 24.4933 116.721 26.9867 115.415 29.2C114.135 31.4133 112.375 33.1467 110.135 34.4C107.921 35.6533 105.495 36.28 102.855 36.28ZM102.855 28C104.615 28 105.975 27.44 106.935 26.32C107.895 25.1733 108.375 23.64 108.375 21.72C108.375 19.7733 107.895 18.24 106.935 17.12C105.975 15.9733 104.615 15.4 102.855 15.4C101.068 15.4 99.6947 15.9733 98.7347 17.12C97.7747 18.24 97.2947 19.7733 97.2947 21.72C97.2947 23.64 97.7747 25.1733 98.7347 26.32C99.6947 27.44 101.068 28 102.855 28ZM132.378 7.68C135.338 7.68 137.925 8.28 140.138 9.48C142.378 10.68 144.098 12.3467 145.298 14.48C146.498 16.6133 147.098 19.04 147.098 21.76C147.098 24.4533 146.498 26.88 145.298 29.04C144.098 31.2 142.378 32.9067 140.138 34.16C137.925 35.3867 135.338 36 132.378 36H120.578V7.68H132.378ZM131.578 28.08C133.578 28.08 135.165 27.5333 136.338 26.44C137.511 25.3467 138.098 23.7867 138.098 21.76C138.098 19.7333 137.511 18.1733 136.338 17.08C135.165 15.9867 133.578 15.44 131.578 15.44H129.458V28.08H131.578ZM159.185 14.76V18.24H167.985V24.92H159.185V28.92H169.185V36H150.305V7.68H169.185V14.76H159.185ZM184.331 7.68C187.291 7.68 189.878 8.28 192.091 9.48C194.331 10.68 196.051 12.3467 197.251 14.48C198.451 16.6133 199.051 19.04 199.051 21.76C199.051 24.4533 198.451 26.88 197.251 29.04C196.051 31.2 194.331 32.9067 192.091 34.16C189.878 35.3867 187.291 36 184.331 36H172.531V7.68H184.331ZM183.531 28.08C185.531 28.08 187.118 27.5333 188.291 26.44C189.465 25.3467 190.051 23.7867 190.051 21.76C190.051 19.7333 189.465 18.1733 188.291 17.08C187.118 15.9867 185.531 15.44 183.531 15.44H181.411V28.08H183.531Z" fill="black"/>
</g>
<defs>
<clipPath id="clip0_1593_9">
<rect width="207" height="43" fill="white"/>
</clipPath>
</defs>
</svg>
