<svg width="508" height="106" viewBox="0 0 508 106" fill="none" xmlns="http://www.w3.org/2000/svg">
<path d="M3.48359 15.203L17.8384 15.2704L17.4963 88.1336L3.14151 88.0662L3.48359 15.203Z" fill="#05020D"/>
<path d="M104.499 91.5121L53.7303 45.2382L53.8251 88.3042L39.2722 88.2358L39.6278 12.5017L40.2218 12.5045L90.8879 59.4708L90.7968 15.6129L105.251 15.6808L104.895 91.514L104.499 91.5121Z" fill="#05020D"/>
<path d="M181.318 82.8637C180.523 83.5199 179.034 84.4039 176.851 85.5157C174.734 86.6278 172.122 87.6055 169.016 88.449C165.91 89.2924 162.476 89.6723 158.715 89.5886C152.973 89.4297 147.83 88.3825 143.285 86.4471C138.806 84.4461 134.991 81.7551 131.839 78.3743C128.753 74.9938 126.395 71.1217 124.765 66.758C123.136 62.3943 122.333 57.7375 122.356 52.7875C122.391 45.3956 123.906 38.8686 126.903 33.2066C129.9 27.5446 134.045 23.1091 139.341 19.8999C144.702 16.691 150.913 15.1032 157.975 15.1363C162.859 15.1592 167.179 15.8395 170.935 17.1772C174.69 18.5148 177.753 19.9482 180.122 21.4774L174.415 35.0137C172.771 33.752 170.566 32.4546 167.8 31.1216C165.101 29.7229 161.969 29.0152 158.405 28.9985C154.709 28.9811 151.239 29.9879 147.996 32.0187C144.818 34.0498 142.231 36.8096 140.235 40.2983C138.305 43.7213 137.329 47.6437 137.309 52.0657C137.287 56.7516 138.158 60.8808 139.923 64.4531C141.689 67.9594 144.217 70.7103 147.508 72.7058C150.798 74.7013 154.655 75.7094 159.077 75.7302C162.971 75.7484 166.306 75.1371 169.084 73.8961C171.862 72.6551 173.98 71.3451 175.439 69.9659L181.318 82.8637Z" fill="#05020D"/>
<path d="M293.611 89.4299L293.953 16.5667L315.732 16.669C323.058 16.7034 329.29 17.8216 334.428 20.0238C339.566 22.2259 343.677 25.1493 346.762 28.7938C349.913 32.4386 352.204 36.5084 353.635 41.0032C355.065 45.498 355.77 50.0223 355.749 54.5763C355.723 59.9882 354.711 64.8675 352.71 69.2142C350.776 73.4951 348.119 77.1787 344.738 80.2649C341.358 83.285 337.453 85.6097 333.023 87.2389C328.594 88.8022 323.904 89.5722 318.954 89.5489L293.611 89.4299ZM308.03 75.6375L316.544 75.6774C323.804 75.7115 329.654 73.858 334.094 70.1168C338.599 66.3759 340.869 60.8425 340.904 53.5166C340.926 48.7646 340.152 44.8999 338.582 41.9225C337.078 38.8794 335.175 36.5275 332.873 34.8667C330.637 33.2061 328.332 32.0733 325.959 31.4682C323.586 30.797 321.575 30.4576 319.925 30.4498L308.243 30.395L308.03 75.6375Z" fill="#05020D"/>
<path d="M373.299 16.9392L422.996 17.1726L422.931 31.0324L387.588 30.8665L387.515 46.4093L418.799 46.5562L418.734 60.416L387.45 60.2692L387.376 76.01L424.105 76.1824L424.04 90.0423L372.957 89.8024L373.299 16.9392Z" fill="#05020D"/>
<path d="M441.861 90.1259L442.203 17.2627L463.983 17.365C471.309 17.3994 477.541 18.5177 482.679 20.7198C487.816 22.922 491.928 25.8453 495.013 29.4898C498.164 33.1346 500.454 37.2044 501.885 41.6992C503.316 46.194 504.021 50.7183 504 55.2723C503.974 60.6842 502.961 65.5635 500.961 69.9102C499.027 74.1912 496.369 77.8747 492.989 80.9609C489.609 83.981 485.704 86.3057 481.274 87.935C476.845 89.4982 472.155 90.2682 467.205 90.2449L441.861 90.1259ZM456.281 76.3335L464.795 76.3735C472.055 76.4075 477.905 74.554 482.344 70.8128C486.85 67.0719 489.12 61.5385 489.154 54.2126C489.177 49.4606 488.403 45.596 486.833 42.6186C485.329 39.5755 483.426 37.2235 481.124 35.5627C478.888 33.9022 476.583 32.7693 474.21 32.1642C471.837 31.493 469.826 31.1536 468.176 31.1458L456.494 31.091L456.281 76.3335Z" fill="#05020D"/>
<path fill-rule="evenodd" clip-rule="evenodd" d="M284.063 52.8837L234.332 102.15L234.454 76.1188C246.16 75.4033 255.458 65.7138 255.514 53.8171C255.57 41.9201 246.363 32.142 234.665 31.3166L234.797 3.15284L284.063 52.8837ZM231.672 31.3025C219.966 32.0176 210.666 41.709 210.611 53.6063C210.555 65.5033 219.763 75.2798 231.461 76.1048L231.341 101.752L182.457 52.4067L231.802 3.52258L231.672 31.3025Z" fill="#6B2EC7"/>
</svg>
